PathFileType	3	(X/Y/Z)	D:\Jess\Healthy\Labelled\HA12\20250414\SRRun02.trc
DataRate	CameraRate	NumFrames	NumMarkers	Units	OrigDataRate	OrigDataStartFrame	OrigNumFrames
250.0	250.0	5	37	mm	250.0	36563	2501
Frame#	Time	C7			T10			CLAV			LSHO			RSHO			LASIS			RASIS			LPSIS			RPSIS			LILCR			RILCR			LGTR			LTHI			LLTHI			LLEP			LMEP			LPSH			LLSH			LDSH			LLMAL			LMMAL			LTOE			L5TH			LHEE			RGTR			RTHI			RLTHI			RLEP			RMEP			RPSH			RLSH			RDSH			RLMAL			RMMAL			RTOE			R5TH			RHEE			
		X1	Y1	Z1	X2	Y2	Z2	X3	Y3	Z3	X4	Y4	Z4	X5	Y5	Z5	X6	Y6	Z6	X7	Y7	Z7	X8	Y8	Z8	X9	Y9	Z9	X10	Y10	Z10	X11	Y11	Z11	X12	Y12	Z12	X13	Y13	Z13	X14	Y14	Z14	X15	Y15	Z15	X16	Y16	Z16	X17	Y17	Z17	X18	Y18	Z18	X19	Y19	Z19	X20	Y20	Z20	X21	Y21	Z21	X22	Y22	Z22	X23	Y23	Z23	X24	Y24	Z24	X25	Y25	Z25	X26	Y26	Z26	X27	Y27	Z27	X28	Y28	Z28	X29	Y29	Z29	X30	Y30	Z30	X31	Y31	Z31	X32	Y32	Z32	X33	Y33	Z33	X34	Y34	Z34	X35	Y35	Z35	X36	Y36	Z36	X37	Y37	Z37	

1564	146.248	1249.737345095106	1512.682481788232	-292.6546819814847	1118.249025325114	1235.75022796272	-297.7188310082528	1357.195114275072	1375.238211529295	-329.2796321496549	1259.552380446968	1474.703984184104	-459.1825629509842	1330.532197275287	1432.458193757433	-164.4062660888766	1272.195613773935	976.9536724601566	-450.173775133435	1285.160995135456	955.3780894310454	-209.9150525781277	1081.948553911876	1059.014268844546	-336.8471205375195	1086.137298613462	1059.225193164414	-297.9461259318068	1213.781530496513	1045.53153158501	-503.4385530184301	1233.445126736473	1023.775703702742	-150.5511411168821	1263.797152191413	875.9875773731046	-508.7500652587873	1365.018063536716	789.2899907221978	-416.159387637548	1325.975654130537	705.8554104286144	-495.4301603473568	1354.634619181615	574.2008733422027	-479.8442372786499	nan	nan	nan	1377.471956966194	457.2836554032547	-433.8150878041894	1268.160762609038	372.3252793760975	-482.9043080083296	1293.041334228633	248.3998468810053	-423.3873709648205	1215.20705020352	173.9112637479038	-438.3366554704559	nan	nan	nan	1353.947144567845	93.20095216624803	-444.7124227412047	1314.219290166674	72.80045150343591	-474.4318331320778	1148.014328001947	155.2766724743396	-376.6053315640746	1177.449911852933	865.9375189002953	-141.988022898132	1240.304523609342	717.2890261071234	-252.2817208943495	1100.628499117062	668.9603815073821	-170.2018624629806	1050.400325465583	546.2463527510133	-188.965799193242	nan	nan	nan	1056.965419834914	430.5105799648042	-248.3419961318684	959.5312275594133	385.3747527911364	-186.5044649319882	940.437211908345	235.5458414446633	-272.1743273298146	856.5284960845618	194.5428225029966	-237.7411052718157	nan	nan	nan	949.0419618459982	58.09172813563345	-271.0981572911107	904.2223602128117	46.81258934519968	-227.5088165054181	777.8632180473132	207.8585453559001	-290.7768775736224	
1565	146.252	1250.206687348342	1514.403170985323	-292.8900670464116	1118.964873429875	1237.899691934844	-297.1555852477933	1357.461982176661	1377.320810323164	-330.1298884070705	1259.357259264381	1476.896137883846	-458.9627363621963	1331.477538176577	1434.817372843325	-165.2550824516407	1272.59175591588	980.2750462666691	-450.5055505610067	1286.088519744949	957.5963604478898	-210.5933632709058	1082.863998467565	1061.742252501263	-336.5930040339345	1087.152248826096	1061.818714441735	-297.7197789394432	1213.997820919056	1049.096298116598	-503.2155129146664	1235.125323396208	1026.191718851286	-151.1677982129019	1263.666776288072	878.8993806362731	-509.1905213734063	1365.353398206921	792.0272580278242	-416.679867204047	1324.966433085055	707.6687145698312	-494.5930074557614	1353.169013193534	575.2242741344419	-479.3636476550873	nan	nan	nan	1379.13780879156	458.7003374117603	-433.3964814564811	1273.162985063547	369.8227793638753	-482.1948728447944	1303.002348261595	246.9055075718069	-422.565862112023	1228.253191909589	169.393390483593	-437.2062062595934	nan	nan	nan	1370.108252781223	94.41234817407684	-443.4259593772101	1331.236252739765	72.51859266389519	-473.1117424005608	1162.012050093745	148.1885161179567	-375.3973151409376	1177.412066806463	868.2720123657558	-141.8868229042456	1237.90165363017	718.8070158835656	-252.5653731548411	1097.701902895035	672.3340054413666	-169.6419481822969	1045.54925990378	550.4187326937723	-188.3341222281153	nan	nan	nan	1051.514045047155	434.3410993563068	-247.3199286437651	953.8928971564922	389.8156058581402	-185.2529527090468	934.9383796706176	238.9844641073205	-270.2837523760066	850.9870753248003	198.4296721791127	-235.8497850412148	nan	nan	nan	940.0249079936312	58.73819342084514	-270.0921002355713	894.5633013647096	48.30573079193371	-226.9688066440912	773.2666698027749	214.2243988977568	-288.7059912389054	
1566	146.256	1250.680922313965	1515.976728165696	-293.1144989942135	1119.63833395176	1239.949528341412	-296.6538025394745	1357.741453297483	1379.221684492478	-330.9898786299142	1259.204008052258	1478.928786594888	-458.7579570898197	1332.408746623933	1436.991410502006	-166.0953537190155	1273.024554585952	983.4712056457012	-450.8141021827395	1286.995763939289	959.769499440404	-211.2737924942744	1083.790183727605	1064.313690007275	-336.3306149569117	1088.158081038014	1064.270122741688	-297.4901057808154	1214.246443140459	1052.523223976634	-502.9726679754197	1236.704627719039	1028.556195241691	-151.7295131847446	1263.516946242855	881.5982226377142	-509.612287999971	1365.63071200242	794.5275398525057	-417.3196807862249	1323.616281174008	709.1980745737054	-493.7656772088352	1351.484675921096	576.0221128384884	-478.8742932579024	nan	nan	nan	1380.635842592773	459.9859626094651	-432.9329461623451	1278.193484454537	367.3412399183341	-481.5678126841654	1312.857461196754	245.6326607441433	-421.765740583695	1241.321811142389	165.2211322939371	-436.1639071746152	nan	nan	nan	1386.051243437991	96.07804352119773	-442.0682708822586	1348.140277067112	72.7348283554812	-471.7662361856412	1176.075649821034	141.4854877118376	-374.3638875332679	1177.408527550971	870.5008671137369	-141.7381375655842	1235.646057833315	720.2298653417406	-252.6848695263872	1094.927452509033	675.6053255242522	-169.1085479142613	1041.01128757288	554.4168921425921	-187.7274595147618	nan	nan	nan	1046.323051689139	438.0293769804502	-246.4023945048282	948.570206792838	394.1023422285866	-184.0267771477862	929.556238230187	242.3362328331074	-268.4466708831083	845.5697089353725	202.2777773160555	-233.9624367322637	nan	nan	nan	931.0862589367961	59.49574275777265	-269.0385865217874	884.958356966924	49.97024270616195	-226.4262856229424	768.8471151794855	220.5467945825257	-286.6130148563711	
1567	146.26	1251.158246453876	1517.401413297507	-293.3296716674656	1120.266387456878	1241.89309442844	-296.2144087102636	1358.032757848033	1380.940030178762	-331.8541201303757	1259.090892962962	1480.793453486661	-458.5756436009431	1333.322124056503	1438.976853493917	-166.9221658167779	1273.488551292422	986.5160031547875	-451.0894365655857	1287.87560160332	961.8863413906844	-211.9485463117031	1084.721093992708	1066.713994180322	-336.0642423524616	1089.148858089347	1066.568301925464	-297.2594494967731	1214.527984051571	1055.788519182647	-502.7087446983859	1238.183821136184	1030.860075115726	-152.2295119027256	1263.350425485311	884.0587000040102	-510.0088308793765	1365.838072252489	796.7572516498515	-418.0804887549487	1321.927612352571	710.4372272461001	-492.9685687950817	1349.603782652135	576.6080805387305	-478.3767334173194	nan	nan	nan	1381.984342234228	461.1543933618796	-432.4210434649974	1283.242584528778	364.9140284840344	-481.0193483717011	1322.573928464585	244.5972292032598	-420.9829013995468	1254.361529169882	161.4195952655595	-435.2060575760089	nan	nan	nan	1401.719957732076	98.1996526198412	-440.6389753779081	1364.872416396133	73.45288865927131	-470.3925107603655	1190.147535269577	135.191892270071	-373.5007164094314	1177.436880027083	872.6237418152443	-141.5423285917555	1233.549359920181	721.5536311397854	-252.6468322772829	1092.322987769178	678.7595928116697	-168.6031327082549	1036.813536162002	558.213676159537	-187.1471526760708	nan	nan	nan	1041.398212557923	441.550216247483	-245.5946707771322	943.567447937608	398.2162668594887	-182.8310023813572	924.2705590728071	245.5981117441325	-266.6723561216432	840.2474659233119	206.0933892269496	-232.0919065108669	nan	nan	nan	922.2002897655021	60.38049931504093	-267.9436607274303	875.3912370868967	51.81653043841065	-225.8818366152857	764.5740260818832	226.8169269880186	-284.5185402851911	
1568	146.264	1251.636701284444	1518.676688622537	-293.5380899320352	1120.846885872355	1243.723988798757	-295.8383221148786	1358.334790629056	1382.476465301605	-332.7171207104975	1259.016657731801	1482.482539118206	-458.4236488790413	1334.214102745243	1440.771608885108	-167.7312860160009	1273.977387191835	989.3846073898603	-451.3226040376939	1288.721151573041	963.9351792526688	-212.608825707011	1085.649707089088	1068.930010317182	-335.7991979262031	1090.118309315663	1068.702835519964	-297.031261593868	1214.842167642306	1058.869105181988	-502.4233480045478	1239.563012767667	1033.094027371425	-152.6630275710089	1263.166126410687	886.2555044514165	-510.3751227388745	1365.962753472993	798.6824877775953	-418.961743426376	1319.911477826307	711.3832587783756	-492.2242127392635	1347.553503124329	576.9968636943108	-477.8733302171107	nan	nan	nan	1383.201512080221	462.2202096991055	-431.8594758085812	1288.295393660849	362.5730797549738	-480.5429131565654	1332.116340619492	243.8106869400774	-420.2132396988233	1267.315286535961	158.0082771041846	-434.3262508587084	nan	nan	nan	1417.054655830443	100.7699048702246	-439.1405702161326	1381.367925328616	74.66703672472804	-468.9884493957071	1204.165491790184	129.3269048392943	-372.7974331555546	1177.495032950146	874.6400816280775	-141.3014375601784	1231.624242838746	722.775390299064	-252.4613628571967	1089.907382304131	681.7804370295596	-168.1258593606383	1032.981563966824	561.7821875653436	-186.5934054421861	nan	nan	nan	1036.745188514399	444.8785814957364	-244.8976920738099	938.8859489184697	402.1410050079304	-181.6694503787502	919.0617505938417	248.7696665508333	-264.968109966251	834.9917529693274	209.8850895946703	-230.2504538846887	nan	nan	nan	913.3421555886156	61.40892300610193	-266.8135141413287	865.8474164875403	53.85417417791248	-225.3344263074245	760.4160630553214	233.0285007340032	-282.443379570547	
